<?xml version="1.0" standalone="no"?>

<!DOCTYPE svg PUBLIC "-//W3C//DTD SVG 20010904//EN"

 "http://www.w3.org/TR/2001/REC-SVG-20010904/DTD/svg10.dtd">

<svg version="1.0" xmlns="http://www.w3.org/2000/svg"

 width="1024.000000pt" height="1024.000000pt" viewBox="0 0 1024.000000 1024.000000"

 preserveAspectRatio="xMidYMid meet">

<path fill="#152e3b" stroke="none" d="
M0 512

L0 0

L512 0

L1024 0

L1024 512

L1024 1024

L512 1024

L0 1024

L0 512

Z

"/>

<path fill="#6f7d7a" stroke="none" d="
M0 512

L0 0

L512 0

L1024 0

L1024 512

L1024 1024

L512 1024

L0 1024

L0 512

Z

M285 873

C286 868 288 863 289 863

C290 862 296 862 303 862

C310 862 316 862 317 863

C318 863 320 868 321 873

L325 882

L332 882

L340 882

L340 881

C340 880 336 870 332 858

C328 846 321 828 317 817

L309 798

L303 797

L296 797

L296 799

C292 808 266 880 266 881

L266 882

L274 882

L282 882

L285 873

Z

M368 867

C368 857 368 852 369 852

C372 850 381 851 382 853

C383 854 387 861 391 868

C399 882 399 882 408 882

L416 882

L416 881

C416 881 412 874 408 866

C404 858 400 851 400 850

L400 848

L401 848

C403 848 410 840 412 837

C415 832 415 821 413 815

C411 809 405 803 399 800

C394 798 392 798 373 798

L353 798

L352 838

C352 860 352 879 353 880

L353 882

L360 882

L368 882

L368 867

Z

M483 878

C490 875 497 868 497 865

C497 864 488 857 486 857

C486 857 485 858 484 860

C481 864 474 867 467 868

C462 868 461 868 456 865

C443 859 439 842 445 826

C448 818 453 813 463 811

C467 810 468 810 473 812

C476 814 480 816 482 818

L486 821

L490 819

C493 818 495 816 496 815

L497 814

L496 811

C490 801 475 795 461 797

C451 798 446 801 439 807

C420 825 422 860 443 875

C450 880 456 882 467 882

C476 881 477 881 483 878

Z

M526 865

L527 848

L543 848

L560 848

L560 865

L560 882

L568 882

L575 882

L575 840

L575 797

L568 797

L560 797

L560 815

L560 834

L545 834

C537 834 529 834 528 834

L526 833

L526 815

L526 797

L518 797

L511 798

L510 838

C510 861 510 880 510 881

L511 882

L518 882

L526 882

L526 865

Z

M610 840

L610 797

L602 797

L594 797

L594 840

L594 882

L602 882

L610 882

L610 840

Z

M669 876

C674 862 697 801 697 799

L698 797

L690 797

L681 797

L671 827

L662 857

L661 856

C660 856 655 843 650 827

L640 798

L631 797

L623 797

L623 799

C624 800 631 820 639 842

L654 882

L660 882

L667 882

L669 876

Z

M762 875

L762 868

L744 868

C731 868 725 868 724 867

C723 866 723 862 723 858

C723 853 723 849 724 848

C725 847 730 847 740 847

L755 847

L755 840

L755 833

L739 833

L724 833

L723 823

C723 817 723 813 724 812

C725 811 729 811 743 811

L761 811

L761 804

L761 797

L735 797

L709 798

L708 840

L708 882

L735 882

L762 882

L762 875

Z

M732 735

C740 731 745 726 749 719

C753 713 753 713 753 662

C754 612 754 612 758 607

C770 593 789 557 798 533

C809 502 815 468 815 434

C815 384 804 342 781 297

C768 273 753 252 733 232

C683 180 618 150 543 142

C528 141 493 141 476 143

C430 147 386 163 347 187

C274 233 225 307 213 392

C206 440 210 487 227 533

C235 556 252 588 267 606

C272 612 272 612 272 662

C272 710 273 712 275 716

C277 722 285 730 290 733

C298 738 287 738 514 738

C727 738 727 738 732 735

Z

M294 849

L292 848

L297 834

C300 826 302 819 303 819

L304 819

L309 834

C311 842 313 848 313 848

C312 849 295 850 294 849

Z

M368 825

L369 812

L380 812

C388 812 391 812 393 813

C402 819 402 832 393 836

C390 838 387 838 379 838

L368 838

L368 825

Z

M300 716

C298 715 296 713 294 711

C292 708 292 708 292 614

C292 531 292 520 294 519

C295 517 417 519 419 520

C419 521 421 524 422 528

C429 551 439 563 455 567

C464 570 562 570 570 568

C587 563 596 553 602 532

C607 516 600 518 670 518

C724 519 731 519 732 521

C733 522 733 542 733 614

C733 702 733 706 731 710

C730 712 728 715 726 716

C723 717 713 718 513 718

C320 718 303 718 300 716

Z

M554 667

C561 665 569 657 573 650

C575 644 575 642 576 629

C576 612 575 608 571 605

C567 603 564 603 560 604

C556 606 555 610 554 627

C553 650 557 648 514 648

C494 648 477 647 476 647

C472 646 471 642 471 626

C470 610 469 607 465 605

C460 602 454 603 451 609

C449 613 449 642 451 648

C455 658 461 664 470 667

C475 669 480 669 513 669

C544 669 550 669 554 667

Z

M267 570

C261 560 248 533 244 521

C233 488 229 461 230 426

C231 389 239 357 254 323

C263 303 276 281 291 264

C300 252 321 231 332 222

C374 189 425 169 483 163

C500 161 542 162 559 165

C615 174 666 197 704 232

C752 277 780 328 791 392

C794 410 795 447 793 466

C789 497 781 526 768 551

C763 561 756 573 755 573

L754 573

L754 546

C753 516 753 515 748 507

C746 504 743 502 740 500

C735 498 734 498 703 498

L671 498

L671 419

C671 334 671 334 666 325

C661 317 579 232 573 228

C569 226 569 226 474 226

C384 226 380 226 375 228

C365 232 357 241 355 251

C354 255 354 296 354 378

L354 498

L322 498

C292 498 289 498 286 500

C280 502 277 506 274 513

C272 517 272 519 271 546

L271 575

L267 570

Z

M458 546

C455 546 453 544 452 543

C449 541 445 532 441 521

C438 511 433 505 425 501

C421 499 419 499 397 498

L374 498

L374 376

C374 242 374 250 381 247

C383 246 398 246 471 246

C520 246 559 246 559 246

C559 246 560 263 560 284

C561 321 561 321 563 326

C565 329 568 334 571 336

C578 343 580 343 616 343

C634 343 649 343 650 344

C651 344 651 361 651 421

L651 498

L627 498

C601 499 599 499 592 507

C587 511 586 514 581 528

C577 541 574 545 567 547

C561 549 463 548 458 546

Z

M584 322

C582 321 581 318 580 316

C579 311 579 267 580 266

L581 266

L608 294

C623 309 636 322 636 323

L637 324

L612 324

C588 324 586 324 584 322

Z

"/>

<path fill="#da9531" stroke="none" d="
M0 512

L0 0

L512 0

L1024 0

L1024 512

L1024 1024

L512 1024

L0 1024

L0 512

Z

M285 874

C287 869 289 864 289 864

C290 863 296 863 303 863

C313 863 316 863 317 864

C318 865 319 870 321 874

L324 883

L332 883

C337 883 341 883 341 882

C342 882 325 837 312 803

L310 796

L303 796

C297 796 296 796 295 798

C293 802 264 881 265 882

C265 883 269 883 274 883

L282 883

L285 874

Z

M369 868

L370 853

L373 852

C381 852 381 852 390 868

C399 883 399 883 408 883

L418 883

L418 882

C418 882 414 875 410 867

C405 858 401 851 401 851

C401 850 403 848 406 845

C409 843 412 839 413 837

C419 825 415 808 404 802

C397 797 390 796 370 796

L352 796

L352 798

C351 800 351 879 352 881

L352 883

L360 883

L369 883

L369 868

Z

M483 880

C489 876 495 871 498 867

L499 864

L495 861

C492 859 489 857 488 857

L486 856

L481 860

C464 877 440 861 444 835

C446 821 451 815 463 812

C467 811 468 811 472 813

C475 814 479 816 481 818

C483 820 485 822 486 822

C488 822 498 816 498 814

C498 812 493 805 489 802

C480 796 471 794 460 796

C451 797 444 801 438 807

C419 826 421 862 443 877

C450 882 456 883 468 883

C476 882 478 882 483 880

Z

M527 866

L528 849

L543 849

L559 849

L559 866

L560 883

L568 883

L576 883

L576 840

L576 796

L568 796

L560 797

L559 815

L559 833

L543 833

L528 833

L527 815

L527 797

L518 797

L510 797

L509 838

C509 862 509 881 509 882

L510 883

L518 883

L527 883

L527 866

Z

M611 839

L611 796

L602 796

L594 797

L593 838

C593 862 593 881 593 882

L594 883

L602 883

L611 883

L611 839

Z

M669 879

C670 876 677 857 685 836

C693 815 699 798 699 797

L699 796

L690 796

L681 797

L671 825

L662 854

L661 854

L660 854

L650 825

L640 797

L632 796

C627 796 623 796 622 796

L621 797

L626 809

C635 834 651 878 652 880

L653 883

L660 883

L668 883

L669 879

Z

M763 875

L763 867

L744 867

L725 867

L725 858

L725 849

L740 848

L756 848

L756 840

L756 833

L740 832

L725 832

L725 822

L725 813

L743 812

L762 812

L762 804

L762 796

L735 796

L708 797

L707 838

C707 862 707 881 707 882

L708 883

L735 883

L763 883

L763 875

Z

M733 736

C741 732 747 726 751 718

C754 713 754 713 754 663

C755 613 755 613 760 606

C772 591 790 557 799 533

C811 500 817 464 816 426

C814 380 806 347 786 306

C765 262 737 229 700 201

C654 166 600 146 541 141

C524 139 483 140 468 142

C358 158 269 226 229 326

C201 395 202 473 230 544

C238 563 258 599 268 609

C271 612 271 612 271 662

C271 711 272 712 274 716

C278 727 286 734 296 737

C301 739 312 739 515 739

C728 739 728 739 733 736

Z

M294 847

C294 846 296 840 298 833

L302 821

L303 822

C303 822 306 828 308 834

C310 840 311 846 312 847

L312 848

L303 848

L294 848

L294 847

Z

M369 825

L369 812

L378 812

C393 812 399 815 399 825

C399 829 398 830 395 833

C392 836 392 837 380 837

L369 837

L369 825

Z

M299 715

C298 714 295 711 294 709

C292 705 292 704 292 613

C292 543 292 521 293 520

C294 519 309 519 356 519

C413 519 417 519 418 521

C419 522 421 526 422 531

C427 545 430 551 437 558

C442 562 446 565 450 566

C456 569 456 569 514 569

C572 569 572 569 577 566

C585 563 593 556 597 548

C598 545 601 538 603 532

C605 527 607 522 608 521

C609 519 615 519 670 519

C715 519 730 519 731 520

C732 521 732 543 732 614

C732 717 732 711 726 715

C723 717 719 717 513 717

C306 717 302 717 299 715

Z

M557 667

C562 665 568 660 571 655

C575 648 576 641 576 624

C576 609 576 609 572 606

C568 602 562 602 558 606

C555 608 555 609 554 615

L554 621

L513 621

L472 621

L471 615

C471 613 470 609 469 608

C466 602 458 601 453 606

C450 609 450 609 450 627

C450 644 450 646 452 651

C455 657 463 665 469 667

C473 669 480 669 513 669

C549 669 553 669 557 667

Z

M263 561

C247 533 236 499 232 463

C230 449 230 415 232 401

C240 349 260 302 292 263

C303 249 326 227 338 218

C378 188 420 172 474 164

C490 162 532 162 548 164

C615 172 669 199 714 243

C745 275 766 308 779 348

C796 397 798 447 787 496

C784 510 774 538 768 549

C765 557 756 572 755 572

L754 572

L754 546

C754 517 754 514 748 507

C747 505 744 502 742 501

C739 499 738 498 705 498

L672 498

L671 415

C671 333 671 333 668 327

C666 323 659 315 640 296

C603 256 578 231 574 228

C571 226 571 226 475 226

C379 226 379 226 374 228

C366 231 361 236 357 242

C355 248 355 248 354 372

L354 497

L323 497

C287 497 286 497 279 504

C272 511 271 514 271 546

L271 572

L270 572

C270 572 266 567 263 561

Z

M460 546

C451 543 449 540 443 524

C440 514 439 512 435 507

C427 499 425 498 403 498

C392 497 382 497 379 497

L375 497

L375 376

C375 243 375 250 381 248

C383 247 410 247 471 247

C519 247 558 247 558 247

C558 247 559 264 559 284

C559 319 560 321 562 326

C563 328 566 333 569 335

C577 343 577 343 616 344

L650 345

L650 421

L650 497

L627 497

C604 498 604 498 598 500

C590 505 587 510 583 521

C581 526 579 533 577 537

C572 547 576 546 514 547

C485 547 461 547 460 546

Z

M554 458

C558 457 561 453 561 449

C561 447 560 445 558 443

C555 440 555 440 490 439

C455 439 425 439 423 439

C421 440 418 445 418 449

C418 453 421 458 424 459

C426 459 454 460 488 460

C541 460 550 460 554 458

Z

M601 414

C607 412 607 403 602 399

C600 397 598 397 512 397

C464 397 423 397 423 398

C420 398 418 403 418 407

C418 410 421 415 424 415

C425 415 465 416 512 416

C586 416 599 416 601 414

Z

M527 368

C530 365 531 362 529 358

C526 353 526 353 472 353

C423 353 423 353 420 355

C419 357 418 359 418 362

C418 366 418 367 421 369

C424 372 424 372 474 372

C524 372 524 372 527 368

Z

M584 321

C581 319 580 314 580 290

L580 268

L581 268

C581 268 604 290 626 314

L635 323

L611 323

C591 323 586 323 584 321

Z

"/>

<path fill="#59b2d4" stroke="none" d="
M0 512

L0 0

L512 0

L1024 0

L1024 512

L1024 1024

L512 1024

L0 1024

L0 512

Z

M285 874

C287 869 289 864 289 864

C290 863 296 863 303 863

C313 863 316 863 317 864

C318 865 319 870 321 874

L324 883

L332 883

C337 883 341 883 341 882

C342 882 325 837 312 803

L310 796

L303 796

C297 796 296 796 295 798

C293 802 264 881 265 882

C265 883 269 883 274 883

L282 883

L285 874

Z

M369 868

L370 853

L373 852

C381 852 381 852 390 868

C399 883 399 883 408 883

L418 883

L418 882

C418 882 414 875 410 867

C405 858 401 851 401 851

C401 850 403 848 406 845

C409 843 412 839 413 837

C419 825 415 808 404 802

C397 797 390 796 370 796

L352 796

L352 798

C351 800 351 879 352 881

L352 883

L360 883

L369 883

L369 868

Z

M483 880

C489 876 495 871 498 867

L499 864

L495 861

C492 859 489 857 488 857

L486 856

L481 860

C464 877 440 861 444 835

C446 821 451 815 463 812

C467 811 468 811 472 813

C475 814 479 816 481 818

C483 820 485 822 486 822

C488 822 498 816 498 814

C498 812 493 805 489 802

C480 796 471 794 460 796

C451 797 444 801 438 807

C419 826 421 862 443 877

C450 882 456 883 468 883

C476 882 478 882 483 880

Z

M527 866

L528 849

L543 849

L559 849

L559 866

L560 883

L568 883

L576 883

L576 840

L576 796

L568 796

L560 797

L559 815

L559 833

L543 833

L528 833

L527 815

L527 797

L518 797

L510 797

L509 838

C509 862 509 881 509 882

L510 883

L518 883

L527 883

L527 866

Z

M611 839

L611 796

L602 796

L594 797

L593 838

C593 862 593 881 593 882

L594 883

L602 883

L611 883

L611 839

Z

M669 879

C670 876 677 857 685 836

C693 815 699 798 699 797

L699 796

L690 796

L681 797

L671 825

L662 854

L661 854

L660 854

L650 825

L640 797

L632 796

C627 796 623 796 622 796

L621 797

L626 809

C635 834 651 878 652 880

L653 883

L660 883

L668 883

L669 879

Z

M763 875

L763 867

L744 867

L725 867

L725 858

L725 849

L740 848

L756 848

L756 840

L756 833

L740 832

L725 832

L725 822

L725 813

L743 812

L762 812

L762 804

L762 796

L735 796

L708 797

L707 838

C707 862 707 881 707 882

L708 883

L735 883

L763 883

L763 875

Z

M733 736

C741 732 747 726 751 718

C754 713 754 713 754 663

C755 613 755 613 760 606

C772 591 790 557 799 533

C811 500 817 464 816 426

C814 380 806 347 786 306

C765 262 737 229 700 201

C654 166 600 146 541 141

C524 139 483 140 468 142

C358 158 269 226 229 326

C201 395 202 473 230 544

C238 563 258 599 268 609

C271 612 271 612 271 662

C271 711 272 712 274 716

C278 727 286 734 296 737

C301 739 312 739 515 739

C728 739 728 739 733 736

Z

M294 847

C294 846 296 840 298 833

L302 821

L303 822

C303 822 306 828 308 834

C310 840 311 846 312 847

L312 848

L303 848

L294 848

L294 847

Z

M369 825

L369 812

L378 812

C393 812 399 815 399 825

C399 829 398 830 395 833

C392 836 392 837 380 837

L369 837

L369 825

Z

M295 709

C293 707 293 696 293 613

L294 521

L356 521

L418 521

L422 531

C426 544 429 550 435 557

C441 563 447 567 455 569

C463 571 563 571 571 569

C588 564 597 554 603 533

C605 528 607 523 608 522

C609 520 612 520 632 520

L655 520

L656 522

C656 524 656 550 656 582

C655 640 655 640 653 647

C649 659 644 668 636 675

C626 686 614 693 600 698

C594 699 588 700 452 700

C307 700 305 700 300 703

C300 704 299 705 298 707

C298 709 297 710 297 711

L296 711

L295 709

Z

M555 668

C562 666 570 658 574 651

C576 645 577 644 577 627

C577 609 577 609 573 605

C568 601 563 601 558 605

C555 607 554 609 554 614

L554 620

L513 620

L472 620

L472 617

C472 606 463 599 454 604

C449 607 448 610 448 628

C449 649 450 652 458 661

C468 670 467 670 513 670

C545 670 551 670 555 668

Z

M263 561

C247 533 236 499 232 463

C230 449 230 415 232 401

C240 349 260 302 292 263

C303 249 326 227 338 218

C378 188 420 172 474 164

C490 162 532 162 548 164

C615 172 669 199 714 243

C745 275 766 308 779 348

C796 397 798 447 787 496

C784 510 774 538 768 549

C765 557 756 572 755 572

L754 572

L754 546

C754 517 754 514 748 507

C747 505 744 502 742 501

C739 499 738 498 705 498

L672 498

L671 415

C671 333 671 333 668 327

C666 323 659 315 640 296

C603 256 578 231 574 228

C571 226 571 226 475 226

C379 226 379 226 374 228

C366 231 361 236 357 242

C355 248 355 248 354 372

L354 497

L323 497

C287 497 286 497 279 504

C272 511 271 514 271 546

L271 572

L270 572

C270 572 266 567 263 561

Z

M460 546

C451 543 449 540 443 524

C440 514 439 512 435 507

C427 499 425 498 403 498

C392 497 382 497 379 497

L375 497

L375 376

C375 243 375 250 381 248

C383 247 410 247 471 247

C519 247 558 247 558 247

C558 247 559 264 559 284

C559 319 560 321 562 326

C563 328 566 333 569 335

C577 343 577 343 616 344

L650 345

L650 421

L650 497

L627 497

C604 498 604 498 598 500

C590 505 587 510 583 521

C581 526 579 533 577 537

C572 547 576 546 514 547

C485 547 461 547 460 546

Z

M554 458

C558 457 561 453 561 449

C561 447 560 445 558 443

C555 440 555 440 490 439

C455 439 425 439 423 439

C421 440 418 445 418 449

C418 453 421 458 424 459

C426 459 454 460 488 460

C541 460 550 460 554 458

Z

M601 414

C607 412 607 403 602 399

C600 397 598 397 512 397

C464 397 423 397 423 398

C420 398 418 403 418 407

C418 410 421 415 424 415

C425 415 465 416 512 416

C586 416 599 416 601 414

Z

M527 368

C530 365 531 362 529 358

C526 353 526 353 472 353

C423 353 423 353 420 355

C419 357 418 359 418 362

C418 366 418 367 421 369

C424 372 424 372 474 372

C524 372 524 372 527 368

Z

M584 321

C581 319 580 314 580 290

L580 268

L581 268

C581 268 604 290 626 314

L635 323

L611 323

C591 323 586 323 584 321

Z

"/>

<path fill="#f5b647" stroke="none" d="
M0 512

L0 0

L512 0

L1024 0

L1024 512

L1024 1024

L512 1024

L0 1024

L0 512

Z

M285 874

C287 869 289 864 289 864

C290 863 296 863 303 863

C313 863 316 863 317 864

C318 865 319 870 321 874

L324 883

L332 883

C337 883 341 883 341 882

C342 882 325 837 312 803

L310 796

L303 796

C297 796 296 796 295 798

C293 802 264 881 265 882

C265 883 269 883 274 883

L282 883

L285 874

Z

M369 868

L370 853

L373 852

C381 852 381 852 390 868

C399 883 399 883 408 883

L418 883

L418 882

C418 882 414 875 410 867

C405 858 401 851 401 851

C401 850 403 848 406 845

C409 843 412 839 413 837

C419 825 415 808 404 802

C397 797 390 796 370 796

L352 796

L352 798

C351 800 351 879 352 881

L352 883

L360 883

L369 883

L369 868

Z

M483 880

C489 876 495 871 498 867

L499 864

L495 861

C492 859 489 857 488 857

L486 856

L481 860

C464 877 440 861 444 835

C446 821 451 815 463 812

C467 811 468 811 472 813

C475 814 479 816 481 818

C483 820 485 822 486 822

C488 822 498 816 498 814

C498 812 493 805 489 802

C480 796 471 794 460 796

C451 797 444 801 438 807

C419 826 421 862 443 877

C450 882 456 883 468 883

C476 882 478 882 483 880

Z

M527 866

L528 849

L543 849

L559 849

L559 866

L560 883

L568 883

L576 883

L576 840

L576 796

L568 796

L560 797

L559 815

L559 833

L543 833

L528 833

L527 815

L527 797

L518 797

L510 797

L509 838

C509 862 509 881 509 882

L510 883

L518 883

L527 883

L527 866

Z

M611 839

L611 796

L602 796

L594 797

L593 838

C593 862 593 881 593 882

L594 883

L602 883

L611 883

L611 839

Z

M669 879

C670 876 677 857 685 836

C693 815 699 798 699 797

L699 796

L690 796

L681 797

L671 825

L662 854

L661 854

L660 854

L650 825

L640 797

L632 796

C627 796 623 796 622 796

L621 797

L626 809

C635 834 651 878 652 880

L653 883

L660 883

L668 883

L669 879

Z

M763 875

L763 867

L744 867

L725 867

L725 858

L725 849

L740 848

L756 848

L756 840

L756 833

L740 832

L725 832

L725 822

L725 813

L743 812

L762 812

L762 804

L762 796

L735 796

L708 797

L707 838

C707 862 707 881 707 882

L708 883

L735 883

L763 883

L763 875

Z

M733 736

C741 732 747 726 751 718

C754 713 754 713 754 663

C755 613 755 613 760 606

C772 591 790 557 799 533

C811 500 817 464 816 426

C814 380 806 347 786 306

C765 262 737 229 700 201

C654 166 600 146 541 141

C524 139 483 140 468 142

C358 158 269 226 229 326

C201 395 202 473 230 544

C238 563 258 599 268 609

C271 612 271 612 271 662

C271 711 272 712 274 716

C278 727 286 734 296 737

C301 739 312 739 515 739

C728 739 728 739 733 736

Z

M294 847

C294 846 296 840 298 833

L302 821

L303 822

C303 822 306 828 308 834

C310 840 311 846 312 847

L312 848

L303 848

L294 848

L294 847

Z

M369 825

L369 812

L378 812

C393 812 399 815 399 825

C399 829 398 830 395 833

C392 836 392 837 380 837

L369 837

L369 825

Z

M295 709

C293 707 293 696 293 613

L294 521

L356 521

L418 521

L422 531

C426 544 429 550 435 557

C441 563 447 567 455 569

C463 571 563 571 571 569

C588 564 597 554 603 533

C605 528 607 523 608 522

C609 520 612 520 632 520

L655 520

L656 522

C656 524 656 550 656 582

C655 640 655 640 653 647

C649 659 644 668 636 675

C626 686 614 693 600 698

C594 699 588 700 452 700

C307 700 305 700 300 703

C300 704 299 705 298 707

C298 709 297 710 297 711

L296 711

L295 709

Z

M555 668

C562 666 570 658 574 651

C576 645 577 644 577 627

C577 609 577 609 573 605

C568 601 563 601 558 605

C555 607 554 609 554 614

L554 620

L513 620

L472 620

L472 617

C472 606 463 599 454 604

C449 607 448 610 448 628

C449 649 450 652 458 661

C468 670 467 670 513 670

C545 670 551 670 555 668

Z

M460 546

C451 543 449 540 443 524

C440 514 439 512 435 507

C427 499 425 498 403 498

C392 497 382 497 379 497

L375 497

L375 376

C375 243 375 250 381 248

C383 247 410 247 471 247

C519 247 558 247 558 247

C558 247 559 264 559 284

C559 319 560 321 562 326

C563 328 566 333 569 335

C577 343 577 343 616 344

L650 345

L650 421

L650 497

L627 497

C604 498 604 498 598 500

C590 505 587 510 583 521

C581 526 579 533 577 537

C572 547 576 546 514 547

C485 547 461 547 460 546

Z

M554 458

C558 457 561 453 561 449

C561 447 560 445 558 443

C555 440 555 440 490 439

C455 439 425 439 423 439

C421 440 418 445 418 449

C418 453 421 458 424 459

C426 459 454 460 488 460

C541 460 550 460 554 458

Z

M601 415

C607 412 607 403 602 399

C600 397 598 397 512 397

C464 397 423 397 423 398

C420 398 418 403 418 407

C418 410 420 414 423 415

C425 415 464 416 512 416

C586 416 598 416 601 415

Z

M527 368

C530 365 531 362 529 358

C526 353 526 353 472 353

C423 353 423 353 420 355

C419 357 418 359 418 362

C418 366 418 367 421 369

C424 372 424 372 474 372

C524 372 524 372 527 368

Z

M584 321

C581 319 580 314 580 290

L580 268

L581 268

C581 268 604 290 626 314

L635 323

L611 323

C591 323 586 323 584 321

Z

"/>

<path fill="#c5c3b8" stroke="none" d="
M0 512

L0 0

L512 0

L1024 0

L1024 512

L1024 1024

L512 1024

L0 1024

L0 512

Z

M285 874

C287 869 289 864 289 864

C290 863 296 863 303 863

C313 863 316 863 317 864

C318 865 319 870 321 874

L324 883

L332 883

C337 883 341 883 341 882

C342 882 325 837 312 803

L310 796

L303 796

C297 796 296 796 295 798

C293 802 264 881 265 882

C265 883 269 883 274 883

L282 883

L285 874

Z

M369 868

L370 853

L373 852

C381 852 381 852 390 868

C399 883 399 883 408 883

L418 883

L418 882

C418 882 414 875 410 867

C405 858 401 851 401 851

C401 850 403 848 406 845

C409 843 412 839 413 837

C419 825 415 808 404 802

C397 797 390 796 370 796

L352 796

L352 798

C351 800 351 879 352 881

L352 883

L360 883

L369 883

L369 868

Z

M483 880

C489 876 495 871 498 867

L499 864

L495 861

C492 859 489 857 488 857

L486 856

L481 860

C464 877 440 861 444 835

C446 821 451 815 463 812

C467 811 468 811 472 813

C475 814 479 816 481 818

C483 820 485 822 486 822

C488 822 498 816 498 814

C498 812 493 805 489 802

C480 796 471 794 460 796

C451 797 444 801 438 807

C419 826 421 862 443 877

C450 882 456 883 468 883

C476 882 478 882 483 880

Z

M527 866

L528 849

L543 849

L559 849

L559 866

L560 883

L568 883

L576 883

L576 840

L576 796

L568 796

L560 797

L559 815

L559 833

L543 833

L528 833

L527 815

L527 797

L518 797

L510 797

L509 838

C509 862 509 881 509 882

L510 883

L518 883

L527 883

L527 866

Z

M611 839

L611 796

L602 796

L594 797

L593 838

C593 862 593 881 593 882

L594 883

L602 883

L611 883

L611 839

Z

M669 879

C670 876 677 857 685 836

C693 815 699 798 699 797

L699 796

L690 796

L681 797

L671 825

L662 854

L661 854

L660 854

L650 825

L640 797

L632 796

C627 796 623 796 622 796

L621 797

L626 809

C635 834 651 878 652 880

L653 883

L660 883

L668 883

L669 879

Z

M763 875

L763 867

L744 867

L725 867

L725 858

L725 849

L740 848

L756 848

L756 840

L756 833

L740 832

L725 832

L725 822

L725 813

L743 812

L762 812

L762 804

L762 796

L735 796

L708 797

L707 838

C707 862 707 881 707 882

L708 883

L735 883

L763 883

L763 875

Z

M733 736

C741 732 747 726 751 718

C754 713 754 713 754 663

C755 613 755 613 760 606

C772 591 790 557 799 533

C811 500 817 464 816 426

C814 380 806 347 786 306

C765 262 737 229 700 201

C654 166 600 146 541 141

C524 139 483 140 468 142

C358 158 269 226 229 326

C201 395 202 473 230 544

C238 563 258 599 268 609

C271 612 271 612 271 662

C271 711 272 712 274 716

C278 727 286 734 296 737

C301 739 312 739 515 739

C728 739 728 739 733 736

Z

M294 847

C294 846 296 840 298 833

L302 821

L303 822

C303 822 306 828 308 834

C310 840 311 846 312 847

L312 848

L303 848

L294 848

L294 847

Z

M369 825

L369 812

L378 812

C393 812 399 815 399 825

C399 829 398 830 395 833

C392 836 392 837 380 837

L369 837

L369 825

Z

M460 546

C451 543 449 540 443 524

C440 514 439 512 435 507

C427 499 425 498 403 498

C392 497 382 497 379 497

L375 497

L375 376

C375 243 375 250 381 248

C383 247 410 247 471 247

C519 247 558 247 558 247

C558 247 559 264 559 284

C559 319 560 321 562 326

C563 328 566 333 569 335

C577 343 577 343 616 344

L650 345

L650 421

L650 497

L627 497

C604 498 604 498 598 500

C590 505 587 510 583 521

C581 526 579 533 577 537

C572 547 576 546 514 547

C485 547 461 547 460 546

Z

M554 458

C558 457 561 453 561 449

C561 447 560 445 558 443

C555 440 555 440 490 439

C455 439 425 439 423 439

C421 440 418 445 418 449

C418 453 421 458 424 459

C426 459 454 460 488 460

C541 460 550 460 554 458

Z

M601 415

C607 412 607 403 602 399

C600 397 598 397 512 397

C464 397 423 397 423 398

C420 398 418 403 418 407

C418 410 420 414 423 415

C425 415 464 416 512 416

C586 416 598 416 601 415

Z

M527 368

C530 365 531 362 529 358

C526 353 526 353 472 353

C423 353 423 353 420 355

C419 357 418 359 418 362

C418 366 418 367 421 369

C424 372 424 372 474 372

C524 372 524 372 527 368

Z

M584 321

C581 319 580 314 580 290

L580 268

L581 268

C581 268 604 290 626 314

L635 323

L611 323

C591 323 586 323 584 321

Z

"/>

<path fill="#feebc7" stroke="none" d="
M0 512

L0 0

L512 0

L1024 0

L1024 512

L1024 1024

L512 1024

L0 1024

L0 512

Z

M283 882

C283 881 285 877 287 873

L290 865

L303 865

L317 865

L320 873

C321 878 323 882 323 883

C324 884 342 885 342 883

C343 882 324 830 313 803

L310 796

L303 795

C300 795 296 795 295 796

C295 796 289 811 283 829

C276 846 269 865 267 871

C265 877 263 883 264 883

C264 884 268 884 273 884

C280 884 282 883 283 882

Z

M369 883

C370 882 370 877 370 867

L370 853

L375 853

C381 853 381 853 389 869

C398 884 398 884 408 884

C413 884 418 884 418 883

C419 883 415 875 411 867

C406 858 402 851 402 850

C402 850 404 848 406 846

C409 845 412 841 413 838

C416 833 416 831 416 825

C416 809 407 798 391 796

C387 795 377 795 368 795

L352 796

L351 839

C351 862 351 882 351 883

L352 884

L360 884

C365 884 368 884 369 883

Z

M483 880

C490 877 493 875 497 870

C500 865 500 863 493 859

C490 857 487 855 486 855

C486 855 484 857 482 859

C473 868 459 868 450 859

C446 854 445 849 445 840

C445 827 449 819 457 815

C466 811 472 812 481 819

C483 821 485 823 486 823

C489 823 498 816 499 815

C499 814 498 811 496 808

C486 794 461 790 444 801

C433 808 427 819 425 834

C422 852 432 872 448 880

C454 883 458 884 468 884

C475 883 477 883 483 880

Z

M528 866

L528 849

L543 849

L558 849

L558 865

C558 878 558 882 559 883

C560 884 564 884 569 884

L577 884

L577 840

L577 796

L569 795

C564 795 560 795 559 796

C558 797 558 801 558 815

L558 832

L543 832

L528 832

L528 815

C528 803 528 797 527 796

C526 795 523 795 518 795

C511 795 510 795 509 797

C507 800 508 881 509 883

C510 884 513 884 519 884

L528 884

L528 866

Z

M612 840

L612 796

L603 795

C596 795 593 795 593 796

C592 798 592 880 593 882

L593 884

L602 884

L612 884

L612 840

Z

M684 841

C693 817 700 797 700 796

L699 795

L689 795

L680 796

L670 824

L661 853

L660 853

C660 853 656 840 651 825

C645 809 641 797 640 796

C640 795 621 795 621 796

C620 796 622 803 625 810

C628 817 635 837 641 853

C646 868 652 882 652 883

C653 884 656 884 661 884

L668 884

L684 841

Z

M764 875

L764 867

L744 866

L725 866

L725 858

L725 849

L741 849

L757 849

L757 840

L757 832

L752 832

C750 831 743 831 736 831

L725 831

L725 822

L725 813

L744 813

L763 813

L763 804

L763 796

L736 795

C716 795 708 795 707 796

C706 797 706 804 706 839

C706 862 706 882 707 883

L707 884

L735 884

L764 884

L764 875

Z

M728 738

C735 736 743 731 746 726

C748 725 750 720 752 717

C755 712 755 712 755 663

C755 614 755 614 761 606

C770 594 779 579 788 562

C815 505 823 445 812 382

C807 347 792 310 772 277

C744 233 701 194 653 171

C620 155 594 147 558 142

C545 140 539 140 513 140

C493 140 479 140 473 141

C420 148 378 163 337 191

C288 224 248 274 227 330

C202 395 201 465 224 531

C232 553 250 587 264 606

C270 614 270 614 270 663

C271 712 271 712 273 717

C278 727 287 735 297 739

C301 740 341 740 512 740

C703 740 723 740 728 738

Z

M295 847

C294 847 296 842 298 835

L302 823

L303 824

C304 825 311 846 311 847

L311 848

L303 848

C299 848 295 848 295 847

Z

M370 825

L370 813

L379 813

C390 813 394 815 397 820

C399 825 398 830 394 833

C391 836 391 836 380 836

L370 836

L370 825

Z

M459 545

C452 543 449 538 441 516

C439 509 431 501 425 499

C421 497 416 497 398 497

L376 497

L376 375

C376 254 376 254 379 251

C382 248 382 248 470 248

L558 248

L558 284

C559 321 559 321 561 326

C565 334 569 338 576 342

C582 345 582 345 615 345

L649 345

L649 420

L649 496

L627 496

C605 496 604 497 599 499

C590 504 586 509 582 522

C576 540 574 543 567 545

C563 546 463 546 459 545

Z

M554 460

C564 456 565 444 556 439

C554 438 544 438 488 438

C423 438 423 438 420 441

C418 443 417 445 417 448

C417 454 418 457 422 459

C425 461 428 461 488 461

C539 461 552 461 554 460

Z

M603 414

C607 411 608 406 606 402

C603 396 608 396 511 396

C423 396 423 396 420 398

C415 403 416 414 422 416

C424 416 464 417 512 417

C600 417 600 417 603 414

Z

M526 371

C532 367 532 359 527 355

C524 352 524 352 474 352

C423 352 423 352 420 354

C419 356 417 358 417 360

C416 364 418 369 421 371

C423 373 424 373 473 373

C521 373 523 373 526 371

Z

M587 322

C585 322 584 321 583 318

C581 315 581 311 581 292

L581 269

L607 295

L633 322

L632 322

C631 322 590 322 587 322

Z

"/>

<path fill="#f3f2ed" stroke="none" d="
M459 545

C452 543 449 538 441 516

C439 509 431 501 425 499

C421 497 416 497 398 497

L376 497

L376 375

C376 254 376 254 379 251

C382 248 382 248 470 248

L558 248

L558 284

C559 321 559 321 561 326

C565 334 569 338 576 342

C582 345 582 345 615 345

L649 345

L649 420

L649 496

L627 496

C605 496 604 497 599 499

C590 504 586 509 582 522

C576 540 574 543 567 545

C563 546 463 546 459 545

Z

M554 460

C564 456 565 444 556 439

C554 438 544 438 488 438

C423 438 423 438 420 441

C418 443 417 445 417 448

C417 454 418 457 422 459

C425 461 428 461 488 461

C539 461 552 461 554 460

Z

M603 414

C607 411 608 406 606 402

C603 396 608 396 511 396

C423 396 423 396 420 398

C415 403 416 414 422 416

C424 416 464 417 512 417

C600 417 600 417 603 414

Z

M526 371

C532 367 532 359 527 355

C524 352 524 352 474 352

C423 352 423 352 420 354

C419 356 417 358 417 360

C416 364 418 369 421 371

C423 373 424 373 473 373

C521 373 523 373 526 371

Z

"/>

</svg>

